<svg xmlns="http://www.w3.org/2000/svg" viewBox="0 0 1200 800" preserveAspectRatio="xMidYMid slice">
  <defs>
    <linearGradient id="bg" x1="0%" y1="0%" x2="100%" y2="100%">
      <stop offset="0%" stop-color="#ffd7e4"/>
      <stop offset="100%" stop-color="#c8f1ff"/>
    </linearGradient>
    <linearGradient id="card" x1="0%" y1="0%" x2="0%" y2="100%">
      <stop offset="0%" stop-color="#ffffff" stop-opacity="0.85"/>
      <stop offset="100%" stop-color="#ffffff" stop-opacity="0.7"/>
    </linearGradient>
  </defs>
  <rect width="1200" height="800" fill="url(#bg)"/>
  <rect x="0" y="0" width="1200" height="64" fill="#ffffff" opacity="0.78"/>
  <text x="40" y="42" font-family="-apple-system,Segoe UI,Helvetica,Microsoft YaHei,sans-serif" font-size="22" font-weight="700" fill="#2679cc">LiuShen</text>
  <g fill="#4c4948" font-family="-apple-system,Segoe UI,Microsoft YaHei,sans-serif" font-size="14">
    <text x="240" y="40">导航</text>
    <text x="320" y="40">整理</text>
    <text x="400" y="40">友人</text>
    <text x="480" y="40">留言</text>
    <text x="560" y="40">分享</text>
    <text x="640" y="40">关于</text>
  </g>
  <text x="600" y="220" text-anchor="middle" font-family="-apple-system,Segoe UI,Microsoft YaHei,sans-serif" font-size="64" font-weight="800" fill="#1f2d3d">清羽 〄 飞扬</text>
  <text x="600" y="280" text-anchor="middle" font-family="-apple-system,Segoe UI,Microsoft YaHei,sans-serif" font-size="20" fill="#4c4948">既然选择远方，当不负青春，砥砺前行。</text>
  <path d="M 0 380 Q 300 340 600 380 T 1200 380 L 1200 420 L 0 420 Z" fill="#ffffff" opacity="0.55"/>
  <g>
    <rect x="60" y="470" width="700" height="160" rx="12" fill="url(#card)"/>
    <rect x="80" y="490" width="180" height="120" rx="8" fill="#c8f1ff"/>
    <text x="280" y="520" font-family="-apple-system,Segoe UI,Microsoft YaHei,sans-serif" font-size="22" font-weight="700" fill="#1f2d3d">如何在迷茫中找到属于自己的路</text>
    <text x="280" y="554" font-family="-apple-system,Segoe UI,Microsoft YaHei,sans-serif" font-size="13" fill="#858585">2026-04-25  ·  随笔  ·  3 分钟阅读</text>
    <text x="280" y="588" font-family="-apple-system,Segoe UI,Microsoft YaHei,sans-serif" font-size="14" fill="#4c4948">在不断变化的世界里，我们如何安放自己的脚步与目光……</text>
  </g>
  <g>
    <rect x="800" y="470" width="340" height="280" rx="12" fill="url(#card)"/>
    <circle cx="970" cy="540" r="40" fill="#ffd7e4"/>
    <text x="970" y="610" text-anchor="middle" font-family="-apple-system,Segoe UI,Microsoft YaHei,sans-serif" font-size="18" font-weight="700" fill="#1f2d3d">柳神</text>
    <text x="970" y="635" text-anchor="middle" font-family="-apple-system,Segoe UI,Microsoft YaHei,sans-serif" font-size="12" fill="#858585">一个热爱生活的开发者</text>
    <line x1="830" y1="668" x2="1110" y2="668" stroke="#e6e6e6" stroke-width="1"/>
    <text x="970" y="700" text-anchor="middle" font-family="-apple-system,Segoe UI,Microsoft YaHei,sans-serif" font-size="13" fill="#4c4948">28 文章  ·  6 标签</text>
  </g>
</svg>
