<svg xmlns="http://www.w3.org/2000/svg" viewBox="0 0 64 64" width="64" height="64">
  <rect width="64" height="64" rx="10" fill="#1d1f21"/>
  <g fill="#2bbc8a">
    <!-- 仙人掌主体 -->
    <path d="M28 14 h8 a4 4 0 0 1 4 4 v32 a4 4 0 0 1 -4 4 h-8 a4 4 0 0 1 -4 -4 v-32 a4 4 0 0 1 4 -4 z"/>
    <!-- 左臂 -->
    <path d="M16 28 h6 a3 3 0 0 1 3 3 v8 a3 3 0 0 1 -3 3 h-6 a3 3 0 0 1 -3 -3 v-8 a3 3 0 0 1 3 -3 z"/>
    <!-- 右臂 -->
    <path d="M42 22 h6 a3 3 0 0 1 3 3 v10 a3 3 0 0 1 -3 3 h-6 a3 3 0 0 1 -3 -3 v-10 a3 3 0 0 1 3 -3 z"/>
  </g>
  <!-- 刺纹 -->
  <g stroke="#1d1f21" stroke-width="1.2" opacity="0.55">
    <line x1="28" y1="22" x2="36" y2="22"/>
    <line x1="28" y1="32" x2="36" y2="32"/>
    <line x1="28" y1="42" x2="36" y2="42"/>
  </g>
  <!-- 花盆 -->
  <rect x="22" y="50" width="20" height="8" fill="#8b5a3c" rx="1"/>
</svg>
